<svg enable-background="new 0 0 253.344 253.344" height="253.344" viewBox="0 0 253.344 253.344" width="253.344" xmlns="http://www.w3.org/2000/svg"><path d="m215.759 43.088c-21.186-1.143-36.49 18.039-37.547 37.549.757 13.957 7.13 23.856 15.858 29.754-8.459 12.708-16.925 25.423-25.39 38.133-4.732-2.474-10.009-3.972-15.32-4.256-7.5-.406-14.146 2.128-19.494 6.373-9.691-10.826-19.385-21.649-29.071-32.476 1.668-3.473 2.699-7.272 2.907-11.098.784-14.576-12.418-25.12-25.839-25.844-14.574-.785-25.121 12.423-25.842 25.844.218 4.035 1.236 7.706 2.813 10.991-7.962 9.232-15.927 18.461-23.889 27.693-3.519-2.488-7.825-4.021-12.692-4.286-12.533-.674-21.6 10.685-22.224 22.227-.675 12.532 10.691 21.597 22.224 22.216 12.533.676 21.602-10.684 22.219-22.216-.224-4.21-1.455-7.963-3.37-11.192 6.068-7.033 12.137-14.07 18.21-21.106 1.661-1.93 3.323-3.854 4.986-5.778 4.494 4.25 10.524 6.913 17.56 7.294 7.021.376 13.094-2.511 17.593-7.086 9.369 10.474 18.746 20.944 28.114 31.415-4.222 5.783-6.822 12.872-7.206 20.032 1.008 18.656 14.34 31.981 32.997 32.992 18.616 1 32.062-15.854 32.992-32.992.513-9.552-3.688-17.722-10.202-23.562 8.693-13.056 17.382-26.111 26.075-39.164 21.358 7.701 49.435-3.593 51.074-33.903 1.148-21.193-18.031-36.503-37.536-37.554z"/></svg>